<?xml version="1.0" encoding="UTF-8" standalone="no"?>
<svg
   viewBox="0 0 1024 1024"
   width="1024"
   height="1024"
   version="1.1"
   id="svg84"
   sodipodi:docname="logo.svg"
   inkscape:version="1.4.2 (f4327f4, 2025-05-13)"
   xmlns:inkscape="http://www.inkscape.org/namespaces/inkscape"
   xmlns:sodipodi="http://sodipodi.sourceforge.net/DTD/sodipodi-0.dtd"
   xmlns="http://www.w3.org/2000/svg"
   xmlns:svg="http://www.w3.org/2000/svg">
  <defs
     id="defs84" />
  <sodipodi:namedview
     id="namedview84"
     pagecolor="#ffffff"
     bordercolor="#000000"
     borderopacity="0.25"
     inkscape:showpageshadow="2"
     inkscape:pageopacity="0.0"
     inkscape:pagecheckerboard="0"
     inkscape:deskcolor="#d1d1d1"
     inkscape:zoom="0.57910156"
     inkscape:cx="444.6543"
     inkscape:cy="373.85497"
     inkscape:window-width="1440"
     inkscape:window-height="837"
     inkscape:window-x="-8"
     inkscape:window-y="-8"
     inkscape:window-maximized="1"
     inkscape:current-layer="svg84" />
  <g
     fill="None"
     fill-opacity="0.0"
     stroke="#FEFEFD"
     stroke-opacity="1.00"
     stroke-width="0.3"
     id="g1">
    <path
       d=" M 0.00 1024.00  L 1024.00 1024.00 L 1024.00 0.00 L 0.00 0.00 L 0.00 1024.00 M 596.00 215.00  C 601.92 217.24 602.87 217.45 607.00 222.00 C 620.49 228.82 626.79 240.70 638.25 250.75 C 649.71 260.80 653.97 274.75 660.77 288.23 C 667.57 301.71 673.14 319.12 674.00 335.00 C 676.04 347.54 675.89 364.34 672.00 375.00 C 670.67 391.75 662.62 408.29 654.70 422.70 C 646.77 437.11 637.14 448.22 627.75 461.75 C 618.35 475.27 612.86 491.54 608.02 507.02 C 603.19 522.51 608.86 549.02 589.00 554.00 C 590.88 559.56 585.24 560.61 582.00 562.00 C 597.42 572.98 582.91 586.23 567.00 585.00 C 551.09 583.77 530.40 584.68 514.00 585.00 C 497.60 585.32 477.05 582.93 461.00 585.00 C 444.95 587.07 428.37 574.56 443.00 562.00 C 441.43 560.03 437.24 561.81 436.00 559.00 C 435.29 558.16 435.16 558.31 435.00 557.00 C 432.11 549.10 417.00 544.91 419.22 532.78 C 421.44 520.65 416.15 508.56 414.02 497.98 C 411.90 487.39 406.16 479.53 401.70 470.31 C 397.23 461.08 390.91 455.19 385.25 446.75 C 379.59 438.32 373.91 431.08 369.08 421.92 C 364.25 412.77 360.17 404.19 357.02 393.98 C 353.88 383.76 350.90 372.21 350.02 360.98 C 349.14 349.74 349.24 334.94 351.00 324.00 C 352.76 313.06 356.25 302.81 359.98 292.98 C 363.70 283.14 369.00 274.65 373.92 265.92 C 378.84 257.18 385.64 251.86 392.25 244.25 C 398.86 236.63 404.47 230.20 412.75 224.75 C 421.04 219.30 428.55 213.60 437.69 209.69 C 446.84 205.79 457.07 199.82 467.00 198.00 C 475.27 193.24 485.92 192.89 496.00 192.00 C 514.77 190.35 534.49 193.99 551.67 197.33 C 568.85 200.66 580.21 209.03 596.00 215.00 M 499.00 624.00  C 484.96 625.36 467.96 625.69 454.00 624.00 C 444.10 623.80 432.17 615.06 439.26 604.26 C 446.35 593.45 459.92 600.62 471.00 599.00 C 482.08 597.38 496.46 600.02 508.00 599.00 C 519.54 597.98 532.09 597.70 544.00 598.00 C 555.91 598.30 567.86 596.60 579.07 599.93 C 590.28 603.25 586.72 618.84 579.00 624.00 C 552.33 624.00 525.67 624.00 499.00 624.00 M 554.00 636.00  C 543.63 675.97 480.30 674.16 469.00 636.00 C 497.33 636.00 525.67 636.00 554.00 636.00 M 780.00 750.00  C 788.64 735.81 794.99 710.38 817.00 718.00 C 808.79 730.16 805.13 740.14 795.08 752.08 C 785.03 764.02 784.86 783.18 786.00 799.00 C 780.67 799.00 775.33 799.00 770.00 799.00 C 777.55 766.87 752.29 743.30 739.00 718.00 C 763.40 708.42 766.51 739.58 780.00 750.00 M 279.00 718.00  C 279.00 723.00 279.00 728.00 279.00 733.00 C 265.67 733.00 252.33 733.00 239.00 733.00 C 239.00 739.33 239.00 745.67 239.00 752.00 C 248.86 750.66 255.85 753.79 266.00 752.00 C 276.15 750.21 278.24 759.42 275.00 768.00 C 262.67 768.00 250.33 768.00 238.00 768.00 C 238.00 778.67 238.00 789.33 238.00 800.00 C 232.33 800.00 226.67 800.00 221.00 800.00 C 221.00 772.67 221.00 745.33 221.00 718.00 C 240.33 718.00 259.67 718.00 279.00 718.00 M 315.00 718.00  C 315.00 745.33 315.00 772.67 315.00 800.00 C 309.33 800.00 303.67 800.00 298.00 800.00 C 298.00 772.67 298.00 745.33 298.00 718.00 C 303.67 718.00 309.33 718.00 315.00 718.00 M 429.00 752.00  C 429.04 751.07 425.68 757.41 427.00 761.00 C 428.32 764.60 426.35 770.10 427.00 774.00 C 427.65 777.90 426.97 782.36 426.02 786.02 C 425.08 789.69 427.73 796.27 425.00 799.00 C 421.66 802.34 413.36 798.58 409.00 800.00 C 409.00 772.67 409.00 745.33 409.00 718.00 C 421.85 714.15 432.86 721.18 436.77 732.23 C 440.69 743.27 448.91 747.99 452.00 759.00 C 463.13 747.18 468.67 731.01 478.00 718.00 C 484.33 718.00 490.67 718.00 497.00 718.00 C 497.00 745.33 497.00 772.67 497.00 800.00 C 491.67 800.00 486.33 800.00 481.00 800.00 C 481.35 782.17 479.23 764.94 480.00 747.00 C 475.70 755.93 468.58 761.30 465.08 771.08 C 461.58 780.87 449.73 787.69 444.08 776.92 C 438.44 766.15 435.73 761.08 429.00 752.00 M 535.00 718.00  C 535.00 745.00 535.00 772.00 535.00 799.00 C 529.67 799.00 524.33 799.00 519.00 799.00 C 519.00 772.00 519.00 745.00 519.00 718.00 C 524.33 718.00 529.67 718.00 535.00 718.00 M 567.00 718.00  C 573.02 736.85 578.46 756.36 584.00 775.00 C 586.65 767.35 590.09 761.37 591.93 752.93 C 593.76 744.48 597.12 738.94 598.78 729.78 C 600.44 720.61 606.86 714.47 618.00 718.00 C 624.34 737.51 631.17 757.44 636.00 777.00 C 637.97 768.59 641.43 762.08 642.98 752.98 C 644.53 743.88 648.88 739.00 649.99 728.99 C 651.10 718.98 660.26 715.18 671.00 718.00 C 668.43 728.17 666.01 737.61 662.67 747.67 C 659.34 757.73 656.38 766.62 653.02 777.02 C 649.66 787.43 649.39 799.40 636.00 799.00 C 622.61 798.60 624.62 785.61 620.67 775.33 C 616.73 765.04 615.36 755.97 611.00 746.00 C 603.38 762.71 599.40 781.53 593.00 799.00 C 587.00 799.00 581.00 799.00 575.00 799.00 C 566.73 772.00 556.97 745.63 551.00 718.00 C 556.33 718.00 561.67 718.00 567.00 718.00 M 748.00 799.00  C 743.57 797.24 732.42 801.90 729.26 797.74 C 726.09 793.59 726.65 786.70 725.00 782.00 C 716.85 781.55 709.33 784.17 701.00 783.00 C 692.67 781.83 686.98 783.97 686.08 793.08 C 685.17 802.18 673.88 798.30 667.00 799.00 C 669.59 788.61 673.79 779.81 677.78 769.78 C 681.76 759.74 684.45 750.09 688.98 739.98 C 693.50 729.86 694.04 717.83 707.00 718.00 C 719.96 718.17 721.00 730.23 725.78 740.22 C 730.55 750.22 732.77 759.13 736.93 769.07 C 741.08 779.02 745.17 788.70 748.00 799.00 M 354.00 719.00  C 354.00 740.33 354.00 761.67 354.00 783.00 C 364.61 781.51 372.07 784.98 383.00 783.00 C 393.93 781.02 396.58 790.48 393.00 800.00 C 374.67 800.00 356.33 800.00 338.00 800.00 C 338.00 773.00 338.00 746.00 338.00 719.00 C 343.33 719.00 348.67 719.00 354.00 719.00 Z"
       id="path1" />
  </g>
  <g
     fill="None"
     fill-opacity="0.0"
     stroke="#F9F4D1"
     stroke-opacity="1.00"
     stroke-width="0.3"
     id="g2">
    <path
       d=" M 467.00 198.00  C 475.49 196.44 487.09 194.21 496.00 192.00 C 485.92 192.89 475.27 193.24 467.00 198.00 Z"
       id="path2" />
  </g>
  <g
     fill="None"
     fill-opacity="0.0"
     stroke="#F1C72C"
     stroke-opacity="1.00"
     stroke-width="0.3"
     id="g3">
    <path
       d=" M 467.00 198.00  C 457.07 199.82 446.84 205.79 437.69 209.69 C 428.55 213.60 421.04 219.30 412.75 224.75 C 404.47 230.20 398.86 236.63 392.25 244.25 C 385.64 251.86 378.84 257.18 373.92 265.92 C 369.00 274.65 363.70 283.14 359.98 292.98 C 356.25 302.81 352.76 313.06 351.00 324.00 C 349.24 334.94 349.14 349.74 350.02 360.98 C 350.90 372.21 353.88 383.76 357.02 393.98 C 360.17 404.19 364.25 412.77 369.08 421.92 C 373.91 431.08 379.59 438.32 385.25 446.75 C 390.91 455.19 397.23 461.08 401.70 470.31 C 406.16 479.53 411.90 487.39 414.02 497.98 C 416.15 508.56 421.44 520.65 419.22 532.78 C 417.00 544.91 432.11 549.10 435.00 557.00 C 433.27 542.92 435.65 528.20 435.00 514.00 C 434.35 499.80 435.00 485.23 435.00 471.00 C 435.00 463.00 435.00 455.00 435.00 447.00 C 435.00 430.78 434.51 413.42 436.00 398.00 C 436.00 363.00 436.00 328.00 436.00 293.00 C 441.67 293.00 447.33 293.00 453.00 293.00 C 453.00 296.67 453.00 300.33 453.00 304.00 C 459.67 304.00 466.33 304.00 473.00 304.00 C 473.18 322.13 494.18 329.32 509.00 331.00 C 511.22 330.77 514.10 329.80 517.00 329.00 C 519.90 328.20 523.01 329.24 526.00 329.00 C 536.27 322.97 552.61 319.32 551.00 303.00 C 557.67 303.00 564.33 303.00 571.00 303.00 C 571.00 299.33 571.00 295.67 571.00 292.00 C 576.67 292.00 582.33 292.00 588.00 292.00 C 588.00 381.00 588.00 470.00 588.00 559.00 C 537.33 559.00 486.67 559.00 436.00 559.00 C 437.24 561.81 441.43 560.03 443.00 562.00 C 428.37 574.56 444.95 587.07 461.00 585.00 C 477.05 582.93 497.60 585.32 514.00 585.00 C 530.40 584.68 551.09 583.77 567.00 585.00 C 582.91 586.23 597.42 572.98 582.00 562.00 C 585.24 560.61 590.88 559.56 589.00 554.00 C 608.86 549.02 603.19 522.51 608.02 507.02 C 612.86 491.54 618.35 475.27 627.75 461.75 C 637.14 448.22 646.77 437.11 654.70 422.70 C 662.62 408.29 670.67 391.75 672.00 375.00 C 673.05 361.74 674.73 348.54 674.00 335.00 C 673.14 319.12 667.57 301.71 660.77 288.23 C 653.97 274.75 649.71 260.80 638.25 250.75 C 626.79 240.70 620.49 228.82 607.00 222.00 C 602.75 219.85 599.86 218.01 596.00 215.00 C 580.21 209.03 568.85 200.66 551.67 197.33 C 534.49 193.99 514.77 190.35 496.00 192.00 C 487.09 194.21 475.49 196.44 467.00 198.00 Z"
       id="path3" />
  </g>
  <g
     fill="None"
     fill-opacity="0.0"
     stroke="#F9EFCB"
     stroke-opacity="1.00"
     stroke-width="0.3"
     id="g4">
    <path
       d=" M 607.00 222.00  C 602.87 217.45 601.92 217.24 596.00 215.00 C 599.86 218.01 602.75 219.85 607.00 222.00 Z"
       id="path4" />
  </g>
  <g
     fill="None"
     fill-opacity="0.0"
     stroke="#030201"
     stroke-opacity="1.00"
     stroke-width="0.3"
     id="g5">
    <path
       d=" M 526.00 329.00  C 520.46 332.25 516.23 331.57 509.00 331.00 C 494.18 329.32 473.18 322.13 473.00 304.00 C 466.33 304.00 459.67 304.00 453.00 304.00 C 453.00 300.33 453.00 296.67 453.00 293.00 C 447.33 293.00 441.67 293.00 436.00 293.00 C 436.00 328.00 436.00 363.00 436.00 398.00 C 436.00 414.33 436.00 430.67 436.00 447.00 C 436.00 455.02 435.70 463.74 435.00 471.00 C 435.00 485.23 434.35 499.80 435.00 514.00 C 435.65 528.20 433.27 542.92 435.00 557.00 C 435.16 558.31 435.29 558.16 436.00 559.00 C 486.67 559.00 537.33 559.00 588.00 559.00 C 588.00 470.00 588.00 381.00 588.00 292.00 C 582.33 292.00 576.67 292.00 571.00 292.00 C 571.00 295.67 571.00 299.33 571.00 303.00 C 564.33 303.00 557.67 303.00 551.00 303.00 C 552.61 319.32 536.27 322.97 526.00 329.00 M 466.00 316.00  C 466.00 321.33 466.00 326.67 466.00 332.00 C 461.33 332.00 456.67 332.00 452.00 332.00 C 452.00 326.67 452.00 321.33 452.00 316.00 C 456.67 316.00 461.33 316.00 466.00 316.00 M 571.00 316.00  C 571.00 321.33 571.00 326.67 571.00 332.00 C 566.67 332.00 562.33 332.00 558.00 332.00 C 558.00 326.67 558.00 321.33 558.00 316.00 C 562.33 316.00 566.67 316.00 571.00 316.00 M 466.00 346.00  C 466.00 351.67 466.00 357.33 466.00 363.00 C 461.33 363.00 456.67 363.00 452.00 363.00 C 452.00 357.33 452.00 351.67 452.00 346.00 C 456.67 346.00 461.33 346.00 466.00 346.00 M 571.00 346.00  C 571.00 351.67 571.00 357.33 571.00 363.00 C 566.67 363.00 562.33 363.00 558.00 363.00 C 558.00 357.33 558.00 351.67 558.00 346.00 C 562.33 346.00 566.67 346.00 571.00 346.00 M 465.00 376.00  C 465.00 381.67 465.00 387.33 465.00 393.00 C 461.00 393.00 457.00 393.00 453.00 393.00 C 453.00 387.33 453.00 381.67 453.00 376.00 C 457.00 376.00 461.00 376.00 465.00 376.00 M 571.00 376.00  C 571.00 381.67 571.00 387.33 571.00 393.00 C 566.67 393.00 562.33 393.00 558.00 393.00 C 558.00 387.33 558.00 381.67 558.00 376.00 C 562.33 376.00 566.67 376.00 571.00 376.00 M 546.00 385.00  C 547.18 394.74 535.45 390.39 528.00 391.00 C 520.55 391.61 510.87 390.68 503.00 391.00 C 495.13 391.32 485.99 390.76 478.00 391.00 C 476.82 381.26 488.55 385.61 496.00 385.00 C 503.45 384.39 513.13 385.32 521.00 385.00 C 528.87 384.68 538.01 385.24 546.00 385.00 M 466.00 406.00  C 466.00 411.33 466.00 416.67 466.00 422.00 C 461.67 422.00 457.33 422.00 453.00 422.00 C 453.00 416.67 453.00 411.33 453.00 406.00 C 457.33 406.00 461.67 406.00 466.00 406.00 M 571.00 406.00  C 571.00 411.33 571.00 416.67 571.00 422.00 C 566.67 422.00 562.33 422.00 558.00 422.00 C 558.00 416.67 558.00 411.33 558.00 406.00 C 562.33 406.00 566.67 406.00 571.00 406.00 M 466.00 436.00  C 466.00 441.33 466.00 446.67 466.00 452.00 C 461.67 452.00 457.33 452.00 453.00 452.00 C 453.00 446.67 453.00 441.33 453.00 436.00 C 457.33 436.00 461.67 436.00 466.00 436.00 M 571.00 436.00  C 571.00 441.33 571.00 446.67 571.00 452.00 C 566.67 452.00 562.33 452.00 558.00 452.00 C 558.00 446.67 558.00 441.33 558.00 436.00 C 562.33 436.00 566.67 436.00 571.00 436.00 M 546.00 460.00  C 547.18 469.74 535.45 465.39 528.00 466.00 C 520.55 466.61 510.87 465.68 503.00 466.00 C 495.13 466.32 485.99 465.76 478.00 466.00 C 476.82 456.26 488.55 460.61 496.00 460.00 C 503.45 459.39 513.13 460.32 521.00 460.00 C 528.87 459.68 538.01 460.24 546.00 460.00 M 453.00 466.00  C 453.90 465.37 464.10 465.37 465.00 466.00 C 468.75 468.63 464.26 479.09 466.00 483.00 C 461.33 483.00 456.67 483.00 452.00 483.00 C 452.65 477.50 450.68 470.67 453.00 466.00 M 571.00 466.00  C 571.00 471.67 571.00 477.33 571.00 483.00 C 566.67 483.00 562.33 483.00 558.00 483.00 C 558.00 477.33 558.00 471.67 558.00 466.00 C 562.33 466.00 566.67 466.00 571.00 466.00 M 465.00 496.00  C 465.00 501.33 465.00 506.67 465.00 512.00 C 461.00 512.00 457.00 512.00 453.00 512.00 C 453.00 506.67 453.00 501.33 453.00 496.00 C 457.00 496.00 461.00 496.00 465.00 496.00 M 571.00 496.00  C 571.00 501.33 571.00 506.67 571.00 512.00 C 566.67 512.00 562.33 512.00 558.00 512.00 C 558.00 506.67 558.00 501.33 558.00 496.00 C 562.33 496.00 566.67 496.00 571.00 496.00 M 466.00 526.00  C 466.00 531.67 466.00 537.33 466.00 543.00 C 461.33 543.00 456.67 543.00 452.00 543.00 C 452.00 537.33 452.00 531.67 452.00 526.00 C 456.67 526.00 461.33 526.00 466.00 526.00 M 571.00 526.00  C 571.00 531.67 571.00 537.33 571.00 543.00 C 566.67 543.00 562.33 543.00 558.00 543.00 C 558.00 537.33 558.00 531.67 558.00 526.00 C 562.33 526.00 566.67 526.00 571.00 526.00 M 546.00 533.00  C 547.18 542.74 535.45 538.39 528.00 539.00 C 520.55 539.61 510.87 538.68 503.00 539.00 C 495.13 539.32 485.99 538.76 478.00 539.00 C 476.82 529.26 488.55 533.61 496.00 533.00 C 503.45 532.39 513.13 533.32 521.00 533.00 C 528.87 532.68 538.01 533.24 546.00 533.00 Z"
       id="path5" />
  </g>
  <g
     fill="None"
     fill-opacity="0.0"
     stroke="#E9D152"
     stroke-opacity="1.00"
     stroke-width="0.3"
     id="g6">
    <path
       d=" M 466.00 316.00  C 461.33 316.00 456.67 316.00 452.00 316.00 C 452.00 321.33 452.00 326.67 452.00 332.00 C 456.67 332.00 461.33 332.00 466.00 332.00 C 466.00 326.67 466.00 321.33 466.00 316.00 Z"
       id="path6" />
  </g>
  <g
     fill="None"
     fill-opacity="0.0"
     stroke="#F1DB56"
     stroke-opacity="1.00"
     stroke-width="0.3"
     id="g7">
    <path
       d=" M 571.00 316.00  C 566.67 316.00 562.33 316.00 558.00 316.00 C 558.00 321.33 558.00 326.67 558.00 332.00 C 562.33 332.00 566.67 332.00 571.00 332.00 C 571.00 326.67 571.00 321.33 571.00 316.00 Z"
       id="path7" />
  </g>
  <g
     fill="None"
     fill-opacity="0.0"
     stroke="#2B200E"
     stroke-opacity="1.00"
     stroke-width="0.3"
     id="g8">
    <path
       d=" M 509.00 331.00  C 516.23 331.57 520.46 332.25 526.00 329.00 C 523.01 329.24 519.90 328.20 517.00 329.00 C 514.10 329.80 511.22 330.77 509.00 331.00 Z"
       id="path8" />
  </g>
  <g
     fill="None"
     fill-opacity="0.0"
     stroke="#FAF3C5"
     stroke-opacity="1.00"
     stroke-width="0.3"
     id="g9">
    <path
       d=" M 672.00 375.00  C 675.89 364.34 676.04 347.54 674.00 335.00 C 674.73 348.54 673.05 361.74 672.00 375.00 Z"
       id="path9" />
  </g>
  <g
     fill="None"
     fill-opacity="0.0"
     stroke="#DEC64C"
     stroke-opacity="1.00"
     stroke-width="0.3"
     id="g10">
    <path
       d=" M 466.00 346.00  C 461.33 346.00 456.67 346.00 452.00 346.00 C 452.00 351.67 452.00 357.33 452.00 363.00 C 456.67 363.00 461.33 363.00 466.00 363.00 C 466.00 357.33 466.00 351.67 466.00 346.00 Z"
       id="path10" />
  </g>
  <g
     fill="None"
     fill-opacity="0.0"
     stroke="#E6D14D"
     stroke-opacity="1.00"
     stroke-width="0.3"
     id="g11">
    <path
       d=" M 571.00 346.00  C 566.67 346.00 562.33 346.00 558.00 346.00 C 558.00 351.67 558.00 357.33 558.00 363.00 C 562.33 363.00 566.67 363.00 571.00 363.00 C 571.00 357.33 571.00 351.67 571.00 346.00 Z"
       id="path11" />
  </g>
  <g
     fill="None"
     fill-opacity="0.0"
     stroke="#EDD34C"
     stroke-opacity="1.00"
     stroke-width="0.3"
     id="g12">
    <path
       d=" M 465.00 376.00  C 461.00 376.00 457.00 376.00 453.00 376.00 C 453.00 381.67 453.00 387.33 453.00 393.00 C 457.00 393.00 461.00 393.00 465.00 393.00 C 465.00 387.33 465.00 381.67 465.00 376.00 Z"
       id="path12" />
  </g>
  <g
     fill="None"
     fill-opacity="0.0"
     stroke="#E7CF4B"
     stroke-opacity="1.00"
     stroke-width="0.3"
     id="g13">
    <path
       d=" M 571.00 376.00  C 566.67 376.00 562.33 376.00 558.00 376.00 C 558.00 381.67 558.00 387.33 558.00 393.00 C 562.33 393.00 566.67 393.00 571.00 393.00 C 571.00 387.33 571.00 381.67 571.00 376.00 Z"
       id="path13" />
  </g>
  <g
     fill="None"
     fill-opacity="0.0"
     stroke="#F7E66B"
     stroke-opacity="1.00"
     stroke-width="0.3"
     id="g14">
    <path
       d=" M 546.00 385.00  C 538.01 385.24 528.87 384.68 521.00 385.00 C 513.13 385.32 503.45 384.39 496.00 385.00 C 488.55 385.61 476.82 381.26 478.00 391.00 C 485.99 390.76 495.13 391.32 503.00 391.00 C 510.87 390.68 520.55 391.61 528.00 391.00 C 535.45 390.39 547.18 394.74 546.00 385.00 Z"
       id="path14" />
  </g>
  <g
     fill="None"
     fill-opacity="0.0"
     stroke="#7C6614"
     stroke-opacity="1.00"
     stroke-width="0.3"
     id="g15">
    <path
       d=" M 435.00 447.00  C 435.00 446.96 436.00 447.00 436.00 447.00 C 436.00 430.67 436.00 414.33 436.00 398.00 C 434.51 413.42 435.00 430.78 435.00 447.00 Z"
       id="path15" />
  </g>
  <g
     fill="None"
     fill-opacity="0.0"
     stroke="#F2D84B"
     stroke-opacity="1.00"
     stroke-width="0.3"
     id="g16">
    <path
       d=" M 466.00 406.00  C 461.67 406.00 457.33 406.00 453.00 406.00 C 453.00 411.33 453.00 416.67 453.00 422.00 C 457.33 422.00 461.67 422.00 466.00 422.00 C 466.00 416.67 466.00 411.33 466.00 406.00 Z"
       id="path16" />
  </g>
  <g
     fill="None"
     fill-opacity="0.0"
     stroke="#F3DB56"
     stroke-opacity="1.00"
     stroke-width="0.3"
     id="g17">
    <path
       d=" M 571.00 406.00  C 566.67 406.00 562.33 406.00 558.00 406.00 C 558.00 411.33 558.00 416.67 558.00 422.00 C 562.33 422.00 566.67 422.00 571.00 422.00 C 571.00 416.67 571.00 411.33 571.00 406.00 Z"
       id="path17" />
  </g>
  <g
     fill="None"
     fill-opacity="0.0"
     stroke="#EBCF47"
     stroke-opacity="1.00"
     stroke-width="0.3"
     id="g18">
    <path
       d=" M 466.00 436.00  C 461.67 436.00 457.33 436.00 453.00 436.00 C 453.00 441.33 453.00 446.67 453.00 452.00 C 457.33 452.00 461.67 452.00 466.00 452.00 C 466.00 446.67 466.00 441.33 466.00 436.00 Z"
       id="path18" />
  </g>
  <g
     fill="None"
     fill-opacity="0.0"
     stroke="#F0D551"
     stroke-opacity="1.00"
     stroke-width="0.3"
     id="g19">
    <path
       d=" M 571.00 436.00  C 566.67 436.00 562.33 436.00 558.00 436.00 C 558.00 441.33 558.00 446.67 558.00 452.00 C 562.33 452.00 566.67 452.00 571.00 452.00 C 571.00 446.67 571.00 441.33 571.00 436.00 Z"
       id="path19" />
  </g>
  <g
     fill="None"
     fill-opacity="0.0"
     stroke="#5C4B0F"
     stroke-opacity="1.00"
     stroke-width="0.3"
     id="g20">
    <path
       d=" M 435.00 471.00  C 435.70 463.74 436.00 455.02 436.00 447.00 C 436.00 447.00 435.00 446.96 435.00 447.00 C 435.00 455.00 435.00 463.00 435.00 471.00 Z"
       id="path20" />
  </g>
  <g
     fill="None"
     fill-opacity="0.0"
     stroke="#F4DE65"
     stroke-opacity="1.00"
     stroke-width="0.3"
     id="g21">
    <path
       d=" M 546.00 460.00  C 538.01 460.24 528.87 459.68 521.00 460.00 C 513.13 460.32 503.45 459.39 496.00 460.00 C 488.55 460.61 476.82 456.26 478.00 466.00 C 485.99 465.76 495.13 466.32 503.00 466.00 C 510.87 465.68 520.55 466.61 528.00 466.00 C 535.45 465.39 547.18 469.74 546.00 460.00 Z"
       id="path21" />
  </g>
  <g
     fill="None"
     fill-opacity="0.0"
     stroke="#D6B641"
     stroke-opacity="1.00"
     stroke-width="0.3"
     id="g22">
    <path
       d=" M 465.00 466.00  C 464.35 471.16 466.31 477.66 464.00 482.00 C 463.81 477.99 462.40 474.23 463.00 470.00 C 458.83 471.78 452.26 476.22 456.00 468.00 C 451.73 469.84 455.06 477.76 454.00 482.00 C 451.75 477.58 453.61 471.18 453.00 466.00 C 450.68 470.67 452.65 477.50 452.00 483.00 C 456.67 483.00 461.33 483.00 466.00 483.00 C 464.26 479.09 468.75 468.63 465.00 466.00 Z"
       id="path22" />
  </g>
  <g
     fill="None"
     fill-opacity="0.0"
     stroke="#F0D55F"
     stroke-opacity="1.00"
     stroke-width="0.3"
     id="g23">
    <path
       d=" M 465.00 466.00  C 464.10 465.37 453.90 465.37 453.00 466.00 C 453.61 471.18 451.75 477.58 454.00 482.00 C 455.06 477.76 451.73 469.84 456.00 468.00 C 452.26 476.22 458.83 471.78 463.00 470.00 C 462.40 474.23 463.81 477.99 464.00 482.00 C 466.31 477.66 464.35 471.16 465.00 466.00 Z"
       id="path23" />
  </g>
  <g
     fill="None"
     fill-opacity="0.0"
     stroke="#EAD151"
     stroke-opacity="1.00"
     stroke-width="0.3"
     id="g24">
    <path
       d=" M 571.00 466.00  C 566.67 466.00 562.33 466.00 558.00 466.00 C 558.00 471.67 558.00 477.33 558.00 483.00 C 562.33 483.00 566.67 483.00 571.00 483.00 C 571.00 477.33 571.00 471.67 571.00 466.00 Z"
       id="path24" />
  </g>
  <g
     fill="None"
     fill-opacity="0.0"
     stroke="#F8CF40"
     stroke-opacity="1.00"
     stroke-width="0.3"
     id="g25">
    <path
       d=" M 465.00 496.00  C 461.00 496.00 457.00 496.00 453.00 496.00 C 453.00 501.33 453.00 506.67 453.00 512.00 C 457.00 512.00 461.00 512.00 465.00 512.00 C 465.00 506.67 465.00 501.33 465.00 496.00 Z"
       id="path25" />
  </g>
  <g
     fill="None"
     fill-opacity="0.0"
     stroke="#F1CD44"
     stroke-opacity="1.00"
     stroke-width="0.3"
     id="g26">
    <path
       d=" M 571.00 496.00  C 566.67 496.00 562.33 496.00 558.00 496.00 C 558.00 501.33 558.00 506.67 558.00 512.00 C 562.33 512.00 566.67 512.00 571.00 512.00 C 571.00 506.67 571.00 501.33 571.00 496.00 Z"
       id="path26" />
  </g>
  <g
     fill="None"
     fill-opacity="0.0"
     stroke="#DEA52A"
     stroke-opacity="1.00"
     stroke-width="0.3"
     id="g27">
    <path
       d=" M 466.00 526.00  C 461.33 526.00 456.67 526.00 452.00 526.00 C 452.00 531.67 452.00 537.33 452.00 543.00 C 456.67 543.00 461.33 543.00 466.00 543.00 C 466.00 537.33 466.00 531.67 466.00 526.00 Z"
       id="path27" />
  </g>
  <g
     fill="None"
     fill-opacity="0.0"
     stroke="#E8B835"
     stroke-opacity="1.00"
     stroke-width="0.3"
     id="g28">
    <path
       d=" M 571.00 526.00  C 566.67 526.00 562.33 526.00 558.00 526.00 C 558.00 531.67 558.00 537.33 558.00 543.00 C 562.33 543.00 566.67 543.00 571.00 543.00 C 571.00 537.33 571.00 531.67 571.00 526.00 Z"
       id="path28" />
  </g>
  <g
     fill="None"
     fill-opacity="0.0"
     stroke="#F3D866"
     stroke-opacity="1.00"
     stroke-width="0.3"
     id="g29">
    <path
       d=" M 546.00 533.00  C 538.01 533.24 528.87 532.68 521.00 533.00 C 513.13 533.32 503.45 532.39 496.00 533.00 C 488.55 533.61 476.82 529.26 478.00 539.00 C 485.99 538.76 495.13 539.32 503.00 539.00 C 510.87 538.68 520.55 539.61 528.00 539.00 C 535.45 538.39 547.18 542.74 546.00 533.00 Z"
       id="path29" />
  </g>
  <g
     fill="None"
     fill-opacity="0.0"
     stroke="#F2BA30"
     stroke-opacity="1.00"
     stroke-width="0.3"
     id="g30">
    <path
       d=" M 454.00 624.00  C 468.99 624.30 484.01 624.00 499.00 624.00 C 525.67 624.00 552.33 624.00 579.00 624.00 C 586.72 618.84 590.28 603.25 579.07 599.93 C 567.86 596.60 555.91 598.30 544.00 598.00 C 532.09 597.70 519.54 597.98 508.00 599.00 C 496.46 600.02 482.08 597.38 471.00 599.00 C 459.92 600.62 446.35 593.45 439.26 604.26 C 432.17 615.06 444.10 623.80 454.00 624.00 Z"
       id="path30" />
  </g>
  <g
     fill="None"
     fill-opacity="0.0"
     stroke="#F7DD9B"
     stroke-opacity="1.00"
     stroke-width="0.3"
     id="g31">
    <path
       d=" M 499.00 624.00  C 484.01 624.00 468.99 624.30 454.00 624.00 C 467.96 625.69 484.96 625.36 499.00 624.00 Z"
       id="path31" />
  </g>
  <g
     fill="None"
     fill-opacity="0.0"
     stroke="#EEA027"
     stroke-opacity="1.00"
     stroke-width="0.3"
     id="g32">
    <path
       d=" M 554.00 636.00  C 525.67 636.00 497.33 636.00 469.00 636.00 C 480.30 674.16 543.63 675.97 554.00 636.00 Z"
       id="path32" />
  </g>
  <g
     fill="None"
     fill-opacity="0.0"
     stroke="#FCF6DC"
     stroke-opacity="1.00"
     stroke-width="0.3"
     id="g33">
    <path
       d=" M 780.00 750.00  C 766.51 739.58 763.40 708.42 739.00 718.00 C 752.29 743.30 777.55 766.87 770.00 799.00 C 775.33 799.00 780.67 799.00 786.00 799.00 C 784.86 783.18 785.03 764.02 795.08 752.08 C 805.13 740.14 808.79 730.16 817.00 718.00 C 794.99 710.38 788.64 735.81 780.00 750.00 Z"
       id="path33" />
  </g>
  <g
     fill="None"
     fill-opacity="0.0"
     stroke="#F0B634"
     stroke-opacity="1.00"
     stroke-width="0.3"
     id="g34">
    <path
       d=" M 279.00 718.00  C 259.67 718.00 240.33 718.00 221.00 718.00 C 221.00 745.33 221.00 772.67 221.00 800.00 C 226.67 800.00 232.33 800.00 238.00 800.00 C 238.00 789.33 238.00 778.67 238.00 768.00 C 250.33 768.00 262.67 768.00 275.00 768.00 C 278.24 759.42 276.15 750.21 266.00 752.00 C 255.85 753.79 248.86 750.66 239.00 752.00 C 239.00 745.67 239.00 739.33 239.00 733.00 C 252.33 733.00 265.67 733.00 279.00 733.00 C 279.00 728.00 279.00 723.00 279.00 718.00 Z"
       id="path34" />
  </g>
  <g
     fill="None"
     fill-opacity="0.0"
     stroke="#EFB634"
     stroke-opacity="1.00"
     stroke-width="0.3"
     id="g35">
    <path
       d=" M 315.00 718.00  C 309.33 718.00 303.67 718.00 298.00 718.00 C 298.00 745.33 298.00 772.67 298.00 800.00 C 303.67 800.00 309.33 800.00 315.00 800.00 C 315.00 772.67 315.00 745.33 315.00 718.00 Z"
       id="path35" />
  </g>
  <g
     fill="None"
     fill-opacity="0.0"
     stroke="#EFB231"
     stroke-opacity="1.00"
     stroke-width="0.3"
     id="g36">
    <path
       d=" M 425.00 799.00  C 427.82 794.98 423.59 786.01 425.00 781.00 C 426.41 775.99 424.07 768.33 425.00 763.00 C 425.93 757.67 423.47 750.55 426.00 746.00 C 427.04 748.09 429.78 749.23 429.00 752.00 C 435.73 761.08 438.44 766.15 444.08 776.92 C 449.73 787.69 461.58 780.87 465.08 771.08 C 468.58 761.30 475.70 755.93 480.00 747.00 C 479.23 764.94 481.35 782.17 481.00 800.00 C 486.33 800.00 491.67 800.00 497.00 800.00 C 497.00 772.67 497.00 745.33 497.00 718.00 C 490.67 718.00 484.33 718.00 478.00 718.00 C 468.67 731.01 463.13 747.18 452.00 759.00 C 448.91 747.99 440.69 743.27 436.77 732.23 C 432.86 721.18 421.85 714.15 409.00 718.00 C 409.00 745.33 409.00 772.67 409.00 800.00 C 413.36 798.58 421.66 802.34 425.00 799.00 Z"
       id="path36" />
  </g>
  <g
     fill="None"
     fill-opacity="0.0"
     stroke="#EDB531"
     stroke-opacity="1.00"
     stroke-width="0.3"
     id="g37">
    <path
       d=" M 535.00 718.00  C 529.67 718.00 524.33 718.00 519.00 718.00 C 519.00 745.00 519.00 772.00 519.00 799.00 C 524.33 799.00 529.67 799.00 535.00 799.00 C 535.00 772.00 535.00 745.00 535.00 718.00 Z"
       id="path37" />
  </g>
  <g
     fill="None"
     fill-opacity="0.0"
     stroke="#FCF5DB"
     stroke-opacity="1.00"
     stroke-width="0.3"
     id="g38">
    <path
       d=" M 567.00 718.00  C 561.67 718.00 556.33 718.00 551.00 718.00 C 556.97 745.63 566.73 772.00 575.00 799.00 C 581.00 799.00 587.00 799.00 593.00 799.00 C 599.40 781.53 603.38 762.71 611.00 746.00 C 615.36 755.97 616.73 765.04 620.67 775.33 C 624.62 785.61 622.61 798.60 636.00 799.00 C 649.39 799.40 649.66 787.43 653.02 777.02 C 656.38 766.62 659.34 757.73 662.67 747.67 C 666.01 737.61 668.43 728.17 671.00 718.00 C 660.26 715.18 651.10 718.98 649.99 728.99 C 648.88 739.00 644.53 743.88 642.98 752.98 C 641.43 762.08 637.97 768.59 636.00 777.00 C 631.17 757.44 624.34 737.51 618.00 718.00 C 606.86 714.47 600.44 720.61 598.78 729.78 C 597.12 738.94 593.76 744.48 591.93 752.93 C 590.09 761.37 586.65 767.35 584.00 775.00 C 578.46 756.36 573.02 736.85 567.00 718.00 Z"
       id="path38" />
  </g>
  <g
     fill="None"
     fill-opacity="0.0"
     stroke="#FCF6DC"
     stroke-opacity="1.00"
     stroke-width="0.3"
     id="g39">
    <path
       d=" M 748.00 799.00  C 745.17 788.70 741.08 779.02 736.93 769.07 C 732.77 759.13 730.55 750.22 725.78 740.22 C 721.00 730.23 719.96 718.17 707.00 718.00 C 694.04 717.83 693.50 729.86 688.98 739.98 C 684.45 750.09 681.76 759.74 677.78 769.78 C 673.79 779.81 669.59 788.61 667.00 799.00 C 673.88 798.30 685.17 802.18 686.08 793.08 C 686.98 783.97 692.67 781.83 701.00 783.00 C 709.33 784.17 716.85 781.55 725.00 782.00 C 726.65 786.70 726.09 793.59 729.26 797.74 C 732.42 801.90 743.57 797.24 748.00 799.00 M 708.00 737.00  C 710.80 748.26 717.56 758.37 719.00 770.00 C 711.00 770.00 703.00 770.00 695.00 770.00 C 697.93 758.88 701.56 745.56 708.00 737.00 Z"
       id="path39" />
  </g>
  <g
     fill="None"
     fill-opacity="0.0"
     stroke="#EDAD2D"
     stroke-opacity="1.00"
     stroke-width="0.3"
     id="g40">
    <path
       d=" M 354.00 719.00  C 348.67 719.00 343.33 719.00 338.00 719.00 C 338.00 746.00 338.00 773.00 338.00 800.00 C 356.33 800.00 374.67 800.00 393.00 800.00 C 396.58 790.48 393.93 781.02 383.00 783.00 C 372.07 784.98 364.61 781.51 354.00 783.00 C 354.00 761.67 354.00 740.33 354.00 719.00 Z"
       id="path40" />
  </g>
  <g
     fill="None"
     fill-opacity="0.0"
     stroke="#FDFCF9"
     stroke-opacity="1.00"
     stroke-width="0.3"
     id="g41">
    <path
       d=" M 708.00 737.00  C 701.56 745.56 697.93 758.88 695.00 770.00 C 703.00 770.00 711.00 770.00 719.00 770.00 C 717.56 758.37 710.80 748.26 708.00 737.00 Z"
       id="path41" />
  </g>
  <g
     fill="None"
     fill-opacity="0.0"
     stroke="#F3E4C4"
     stroke-opacity="1.00"
     stroke-width="0.3"
     id="g42">
    <path
       d=" M 425.00 799.00  C 427.73 796.27 425.08 789.69 426.02 786.02 C 426.97 782.36 427.65 777.90 427.00 774.00 C 426.35 770.10 428.32 764.60 427.00 761.00 C 425.68 757.41 429.04 751.07 429.00 752.00 C 429.78 749.23 427.04 748.09 426.00 746.00 C 423.47 750.55 425.93 757.67 425.00 763.00 C 424.07 768.33 426.41 775.99 425.00 781.00 C 423.59 786.01 427.82 794.98 425.00 799.00 Z"
       id="path42" />
  </g>
  <g
     fill="#F9F4D1"
     fill-opacity="1.00"
     stroke="None"
     id="g44">
    <path
       d=" M 467.00 198.00  C 475.49 196.44 487.09 194.21 496.00 192.00 C 485.92 192.89 475.27 193.24 467.00 198.00 Z"
       id="path44" />
  </g>
  <g
     fill="#F1C72C"
     fill-opacity="1.00"
     stroke="None"
     id="g45">
    <path
       d=" M 467.00 198.00  C 457.07 199.82 446.84 205.79 437.69 209.69 C 428.55 213.60 421.04 219.30 412.75 224.75 C 404.47 230.20 398.86 236.63 392.25 244.25 C 385.64 251.86 378.84 257.18 373.92 265.92 C 369.00 274.65 363.70 283.14 359.98 292.98 C 356.25 302.81 352.76 313.06 351.00 324.00 C 349.24 334.94 349.14 349.74 350.02 360.98 C 350.90 372.21 353.88 383.76 357.02 393.98 C 360.17 404.19 364.25 412.77 369.08 421.92 C 373.91 431.08 379.59 438.32 385.25 446.75 C 390.91 455.19 397.23 461.08 401.70 470.31 C 406.16 479.53 411.90 487.39 414.02 497.98 C 416.15 508.56 421.44 520.65 419.22 532.78 C 417.00 544.91 432.11 549.10 435.00 557.00 C 433.27 542.92 435.65 528.20 435.00 514.00 C 434.35 499.80 435.00 485.23 435.00 471.00 C 435.00 463.00 435.00 455.00 435.00 447.00 C 435.00 430.78 434.51 413.42 436.00 398.00 C 436.00 363.00 436.00 328.00 436.00 293.00 C 441.67 293.00 447.33 293.00 453.00 293.00 C 453.00 296.67 453.00 300.33 453.00 304.00 C 459.67 304.00 466.33 304.00 473.00 304.00 C 473.18 322.13 494.18 329.32 509.00 331.00 C 511.22 330.77 514.10 329.80 517.00 329.00 C 519.90 328.20 523.01 329.24 526.00 329.00 C 536.27 322.97 552.61 319.32 551.00 303.00 C 557.67 303.00 564.33 303.00 571.00 303.00 C 571.00 299.33 571.00 295.67 571.00 292.00 C 576.67 292.00 582.33 292.00 588.00 292.00 C 588.00 381.00 588.00 470.00 588.00 559.00 C 537.33 559.00 486.67 559.00 436.00 559.00 C 437.24 561.81 441.43 560.03 443.00 562.00 C 428.37 574.56 444.95 587.07 461.00 585.00 C 477.05 582.93 497.60 585.32 514.00 585.00 C 530.40 584.68 551.09 583.77 567.00 585.00 C 582.91 586.23 597.42 572.98 582.00 562.00 C 585.24 560.61 590.88 559.56 589.00 554.00 C 608.86 549.02 603.19 522.51 608.02 507.02 C 612.86 491.54 618.35 475.27 627.75 461.75 C 637.14 448.22 646.77 437.11 654.70 422.70 C 662.62 408.29 670.67 391.75 672.00 375.00 C 673.05 361.74 674.73 348.54 674.00 335.00 C 673.14 319.12 667.57 301.71 660.77 288.23 C 653.97 274.75 649.71 260.80 638.25 250.75 C 626.79 240.70 620.49 228.82 607.00 222.00 C 602.75 219.85 599.86 218.01 596.00 215.00 C 580.21 209.03 568.85 200.66 551.67 197.33 C 534.49 193.99 514.77 190.35 496.00 192.00 C 487.09 194.21 475.49 196.44 467.00 198.00 Z"
       id="path45" />
  </g>
  <g
     fill="#F9EFCB"
     fill-opacity="1.00"
     stroke="None"
     id="g46">
    <path
       d=" M 607.00 222.00  C 602.87 217.45 601.92 217.24 596.00 215.00 C 599.86 218.01 602.75 219.85 607.00 222.00 Z"
       id="path46" />
  </g>
  <g
     fill="#030201"
     fill-opacity="1.00"
     stroke="None"
     id="g47">
    <path
       d=" M 526.00 329.00  C 520.46 332.25 516.23 331.57 509.00 331.00 C 494.18 329.32 473.18 322.13 473.00 304.00 C 466.33 304.00 459.67 304.00 453.00 304.00 C 453.00 300.33 453.00 296.67 453.00 293.00 C 447.33 293.00 441.67 293.00 436.00 293.00 C 436.00 328.00 436.00 363.00 436.00 398.00 C 436.00 414.33 436.00 430.67 436.00 447.00 C 436.00 455.02 435.70 463.74 435.00 471.00 C 435.00 485.23 434.35 499.80 435.00 514.00 C 435.65 528.20 433.27 542.92 435.00 557.00 C 435.16 558.31 435.29 558.16 436.00 559.00 C 486.67 559.00 537.33 559.00 588.00 559.00 C 588.00 470.00 588.00 381.00 588.00 292.00 C 582.33 292.00 576.67 292.00 571.00 292.00 C 571.00 295.67 571.00 299.33 571.00 303.00 C 564.33 303.00 557.67 303.00 551.00 303.00 C 552.61 319.32 536.27 322.97 526.00 329.00 M 466.00 316.00  C 466.00 321.33 466.00 326.67 466.00 332.00 C 461.33 332.00 456.67 332.00 452.00 332.00 C 452.00 326.67 452.00 321.33 452.00 316.00 C 456.67 316.00 461.33 316.00 466.00 316.00 M 571.00 316.00  C 571.00 321.33 571.00 326.67 571.00 332.00 C 566.67 332.00 562.33 332.00 558.00 332.00 C 558.00 326.67 558.00 321.33 558.00 316.00 C 562.33 316.00 566.67 316.00 571.00 316.00 M 466.00 346.00  C 466.00 351.67 466.00 357.33 466.00 363.00 C 461.33 363.00 456.67 363.00 452.00 363.00 C 452.00 357.33 452.00 351.67 452.00 346.00 C 456.67 346.00 461.33 346.00 466.00 346.00 M 571.00 346.00  C 571.00 351.67 571.00 357.33 571.00 363.00 C 566.67 363.00 562.33 363.00 558.00 363.00 C 558.00 357.33 558.00 351.67 558.00 346.00 C 562.33 346.00 566.67 346.00 571.00 346.00 M 465.00 376.00  C 465.00 381.67 465.00 387.33 465.00 393.00 C 461.00 393.00 457.00 393.00 453.00 393.00 C 453.00 387.33 453.00 381.67 453.00 376.00 C 457.00 376.00 461.00 376.00 465.00 376.00 M 571.00 376.00  C 571.00 381.67 571.00 387.33 571.00 393.00 C 566.67 393.00 562.33 393.00 558.00 393.00 C 558.00 387.33 558.00 381.67 558.00 376.00 C 562.33 376.00 566.67 376.00 571.00 376.00 M 546.00 385.00  C 547.18 394.74 535.45 390.39 528.00 391.00 C 520.55 391.61 510.87 390.68 503.00 391.00 C 495.13 391.32 485.99 390.76 478.00 391.00 C 476.82 381.26 488.55 385.61 496.00 385.00 C 503.45 384.39 513.13 385.32 521.00 385.00 C 528.87 384.68 538.01 385.24 546.00 385.00 M 466.00 406.00  C 466.00 411.33 466.00 416.67 466.00 422.00 C 461.67 422.00 457.33 422.00 453.00 422.00 C 453.00 416.67 453.00 411.33 453.00 406.00 C 457.33 406.00 461.67 406.00 466.00 406.00 M 571.00 406.00  C 571.00 411.33 571.00 416.67 571.00 422.00 C 566.67 422.00 562.33 422.00 558.00 422.00 C 558.00 416.67 558.00 411.33 558.00 406.00 C 562.33 406.00 566.67 406.00 571.00 406.00 M 466.00 436.00  C 466.00 441.33 466.00 446.67 466.00 452.00 C 461.67 452.00 457.33 452.00 453.00 452.00 C 453.00 446.67 453.00 441.33 453.00 436.00 C 457.33 436.00 461.67 436.00 466.00 436.00 M 571.00 436.00  C 571.00 441.33 571.00 446.67 571.00 452.00 C 566.67 452.00 562.33 452.00 558.00 452.00 C 558.00 446.67 558.00 441.33 558.00 436.00 C 562.33 436.00 566.67 436.00 571.00 436.00 M 546.00 460.00  C 547.18 469.74 535.45 465.39 528.00 466.00 C 520.55 466.61 510.87 465.68 503.00 466.00 C 495.13 466.32 485.99 465.76 478.00 466.00 C 476.82 456.26 488.55 460.61 496.00 460.00 C 503.45 459.39 513.13 460.32 521.00 460.00 C 528.87 459.68 538.01 460.24 546.00 460.00 M 453.00 466.00  C 453.90 465.37 464.10 465.37 465.00 466.00 C 468.75 468.63 464.26 479.09 466.00 483.00 C 461.33 483.00 456.67 483.00 452.00 483.00 C 452.65 477.50 450.68 470.67 453.00 466.00 M 571.00 466.00  C 571.00 471.67 571.00 477.33 571.00 483.00 C 566.67 483.00 562.33 483.00 558.00 483.00 C 558.00 477.33 558.00 471.67 558.00 466.00 C 562.33 466.00 566.67 466.00 571.00 466.00 M 465.00 496.00  C 465.00 501.33 465.00 506.67 465.00 512.00 C 461.00 512.00 457.00 512.00 453.00 512.00 C 453.00 506.67 453.00 501.33 453.00 496.00 C 457.00 496.00 461.00 496.00 465.00 496.00 M 571.00 496.00  C 571.00 501.33 571.00 506.67 571.00 512.00 C 566.67 512.00 562.33 512.00 558.00 512.00 C 558.00 506.67 558.00 501.33 558.00 496.00 C 562.33 496.00 566.67 496.00 571.00 496.00 M 466.00 526.00  C 466.00 531.67 466.00 537.33 466.00 543.00 C 461.33 543.00 456.67 543.00 452.00 543.00 C 452.00 537.33 452.00 531.67 452.00 526.00 C 456.67 526.00 461.33 526.00 466.00 526.00 M 571.00 526.00  C 571.00 531.67 571.00 537.33 571.00 543.00 C 566.67 543.00 562.33 543.00 558.00 543.00 C 558.00 537.33 558.00 531.67 558.00 526.00 C 562.33 526.00 566.67 526.00 571.00 526.00 M 546.00 533.00  C 547.18 542.74 535.45 538.39 528.00 539.00 C 520.55 539.61 510.87 538.68 503.00 539.00 C 495.13 539.32 485.99 538.76 478.00 539.00 C 476.82 529.26 488.55 533.61 496.00 533.00 C 503.45 532.39 513.13 533.32 521.00 533.00 C 528.87 532.68 538.01 533.24 546.00 533.00 Z"
       id="path47" />
  </g>
  <g
     fill="#E9D152"
     fill-opacity="1.00"
     stroke="None"
     id="g48">
    <path
       d=" M 466.00 316.00  C 461.33 316.00 456.67 316.00 452.00 316.00 C 452.00 321.33 452.00 326.67 452.00 332.00 C 456.67 332.00 461.33 332.00 466.00 332.00 C 466.00 326.67 466.00 321.33 466.00 316.00 Z"
       id="path48" />
  </g>
  <g
     fill="#F1DB56"
     fill-opacity="1.00"
     stroke="None"
     id="g49">
    <path
       d=" M 571.00 316.00  C 566.67 316.00 562.33 316.00 558.00 316.00 C 558.00 321.33 558.00 326.67 558.00 332.00 C 562.33 332.00 566.67 332.00 571.00 332.00 C 571.00 326.67 571.00 321.33 571.00 316.00 Z"
       id="path49" />
  </g>
  <g
     fill="#2B200E"
     fill-opacity="1.00"
     stroke="None"
     id="g50">
    <path
       d=" M 509.00 331.00  C 516.23 331.57 520.46 332.25 526.00 329.00 C 523.01 329.24 519.90 328.20 517.00 329.00 C 514.10 329.80 511.22 330.77 509.00 331.00 Z"
       id="path50" />
  </g>
  <g
     fill="#FAF3C5"
     fill-opacity="1.00"
     stroke="None"
     id="g51">
    <path
       d=" M 672.00 375.00  C 675.89 364.34 676.04 347.54 674.00 335.00 C 674.73 348.54 673.05 361.74 672.00 375.00 Z"
       id="path51" />
  </g>
  <g
     fill="#DEC64C"
     fill-opacity="1.00"
     stroke="None"
     id="g52">
    <path
       d=" M 466.00 346.00  C 461.33 346.00 456.67 346.00 452.00 346.00 C 452.00 351.67 452.00 357.33 452.00 363.00 C 456.67 363.00 461.33 363.00 466.00 363.00 C 466.00 357.33 466.00 351.67 466.00 346.00 Z"
       id="path52" />
  </g>
  <g
     fill="#E6D14D"
     fill-opacity="1.00"
     stroke="None"
     id="g53">
    <path
       d=" M 571.00 346.00  C 566.67 346.00 562.33 346.00 558.00 346.00 C 558.00 351.67 558.00 357.33 558.00 363.00 C 562.33 363.00 566.67 363.00 571.00 363.00 C 571.00 357.33 571.00 351.67 571.00 346.00 Z"
       id="path53" />
  </g>
  <g
     fill="#EDD34C"
     fill-opacity="1.00"
     stroke="None"
     id="g54">
    <path
       d=" M 465.00 376.00  C 461.00 376.00 457.00 376.00 453.00 376.00 C 453.00 381.67 453.00 387.33 453.00 393.00 C 457.00 393.00 461.00 393.00 465.00 393.00 C 465.00 387.33 465.00 381.67 465.00 376.00 Z"
       id="path54" />
  </g>
  <g
     fill="#E7CF4B"
     fill-opacity="1.00"
     stroke="None"
     id="g55">
    <path
       d=" M 571.00 376.00  C 566.67 376.00 562.33 376.00 558.00 376.00 C 558.00 381.67 558.00 387.33 558.00 393.00 C 562.33 393.00 566.67 393.00 571.00 393.00 C 571.00 387.33 571.00 381.67 571.00 376.00 Z"
       id="path55" />
  </g>
  <g
     fill="#F7E66B"
     fill-opacity="1.00"
     stroke="None"
     id="g56">
    <path
       d=" M 546.00 385.00  C 538.01 385.24 528.87 384.68 521.00 385.00 C 513.13 385.32 503.45 384.39 496.00 385.00 C 488.55 385.61 476.82 381.26 478.00 391.00 C 485.99 390.76 495.13 391.32 503.00 391.00 C 510.87 390.68 520.55 391.61 528.00 391.00 C 535.45 390.39 547.18 394.74 546.00 385.00 Z"
       id="path56" />
  </g>
  <g
     fill="#7C6614"
     fill-opacity="1.00"
     stroke="None"
     id="g57">
    <path
       d=" M 435.00 447.00  C 435.00 446.96 436.00 447.00 436.00 447.00 C 436.00 430.67 436.00 414.33 436.00 398.00 C 434.51 413.42 435.00 430.78 435.00 447.00 Z"
       id="path57" />
  </g>
  <g
     fill="#F2D84B"
     fill-opacity="1.00"
     stroke="None"
     id="g58">
    <path
       d=" M 466.00 406.00  C 461.67 406.00 457.33 406.00 453.00 406.00 C 453.00 411.33 453.00 416.67 453.00 422.00 C 457.33 422.00 461.67 422.00 466.00 422.00 C 466.00 416.67 466.00 411.33 466.00 406.00 Z"
       id="path58" />
  </g>
  <g
     fill="#F3DB56"
     fill-opacity="1.00"
     stroke="None"
     id="g59">
    <path
       d=" M 571.00 406.00  C 566.67 406.00 562.33 406.00 558.00 406.00 C 558.00 411.33 558.00 416.67 558.00 422.00 C 562.33 422.00 566.67 422.00 571.00 422.00 C 571.00 416.67 571.00 411.33 571.00 406.00 Z"
       id="path59" />
  </g>
  <g
     fill="#EBCF47"
     fill-opacity="1.00"
     stroke="None"
     id="g60">
    <path
       d=" M 466.00 436.00  C 461.67 436.00 457.33 436.00 453.00 436.00 C 453.00 441.33 453.00 446.67 453.00 452.00 C 457.33 452.00 461.67 452.00 466.00 452.00 C 466.00 446.67 466.00 441.33 466.00 436.00 Z"
       id="path60" />
  </g>
  <g
     fill="#F0D551"
     fill-opacity="1.00"
     stroke="None"
     id="g61">
    <path
       d=" M 571.00 436.00  C 566.67 436.00 562.33 436.00 558.00 436.00 C 558.00 441.33 558.00 446.67 558.00 452.00 C 562.33 452.00 566.67 452.00 571.00 452.00 C 571.00 446.67 571.00 441.33 571.00 436.00 Z"
       id="path61" />
  </g>
  <g
     fill="#5C4B0F"
     fill-opacity="1.00"
     stroke="None"
     id="g62">
    <path
       d=" M 435.00 471.00  C 435.70 463.74 436.00 455.02 436.00 447.00 C 436.00 447.00 435.00 446.96 435.00 447.00 C 435.00 455.00 435.00 463.00 435.00 471.00 Z"
       id="path62" />
  </g>
  <g
     fill="#F4DE65"
     fill-opacity="1.00"
     stroke="None"
     id="g63">
    <path
       d=" M 546.00 460.00  C 538.01 460.24 528.87 459.68 521.00 460.00 C 513.13 460.32 503.45 459.39 496.00 460.00 C 488.55 460.61 476.82 456.26 478.00 466.00 C 485.99 465.76 495.13 466.32 503.00 466.00 C 510.87 465.68 520.55 466.61 528.00 466.00 C 535.45 465.39 547.18 469.74 546.00 460.00 Z"
       id="path63" />
  </g>
  <g
     fill="#D6B641"
     fill-opacity="1.00"
     stroke="None"
     id="g64">
    <path
       d=" M 465.00 466.00  C 464.35 471.16 466.31 477.66 464.00 482.00 C 463.81 477.99 462.40 474.23 463.00 470.00 C 458.83 471.78 452.26 476.22 456.00 468.00 C 451.73 469.84 455.06 477.76 454.00 482.00 C 451.75 477.58 453.61 471.18 453.00 466.00 C 450.68 470.67 452.65 477.50 452.00 483.00 C 456.67 483.00 461.33 483.00 466.00 483.00 C 464.26 479.09 468.75 468.63 465.00 466.00 Z"
       id="path64" />
  </g>
  <g
     fill="#F0D55F"
     fill-opacity="1.00"
     stroke="None"
     id="g65">
    <path
       d=" M 465.00 466.00  C 464.10 465.37 453.90 465.37 453.00 466.00 C 453.61 471.18 451.75 477.58 454.00 482.00 C 455.06 477.76 451.73 469.84 456.00 468.00 C 452.26 476.22 458.83 471.78 463.00 470.00 C 462.40 474.23 463.81 477.99 464.00 482.00 C 466.31 477.66 464.35 471.16 465.00 466.00 Z"
       id="path65" />
  </g>
  <g
     fill="#EAD151"
     fill-opacity="1.00"
     stroke="None"
     id="g66">
    <path
       d=" M 571.00 466.00  C 566.67 466.00 562.33 466.00 558.00 466.00 C 558.00 471.67 558.00 477.33 558.00 483.00 C 562.33 483.00 566.67 483.00 571.00 483.00 C 571.00 477.33 571.00 471.67 571.00 466.00 Z"
       id="path66" />
  </g>
  <g
     fill="#F8CF40"
     fill-opacity="1.00"
     stroke="None"
     id="g67">
    <path
       d=" M 465.00 496.00  C 461.00 496.00 457.00 496.00 453.00 496.00 C 453.00 501.33 453.00 506.67 453.00 512.00 C 457.00 512.00 461.00 512.00 465.00 512.00 C 465.00 506.67 465.00 501.33 465.00 496.00 Z"
       id="path67" />
  </g>
  <g
     fill="#F1CD44"
     fill-opacity="1.00"
     stroke="None"
     id="g68">
    <path
       d=" M 571.00 496.00  C 566.67 496.00 562.33 496.00 558.00 496.00 C 558.00 501.33 558.00 506.67 558.00 512.00 C 562.33 512.00 566.67 512.00 571.00 512.00 C 571.00 506.67 571.00 501.33 571.00 496.00 Z"
       id="path68" />
  </g>
  <g
     fill="#DEA52A"
     fill-opacity="1.00"
     stroke="None"
     id="g69">
    <path
       d=" M 466.00 526.00  C 461.33 526.00 456.67 526.00 452.00 526.00 C 452.00 531.67 452.00 537.33 452.00 543.00 C 456.67 543.00 461.33 543.00 466.00 543.00 C 466.00 537.33 466.00 531.67 466.00 526.00 Z"
       id="path69" />
  </g>
  <g
     fill="#E8B835"
     fill-opacity="1.00"
     stroke="None"
     id="g70">
    <path
       d=" M 571.00 526.00  C 566.67 526.00 562.33 526.00 558.00 526.00 C 558.00 531.67 558.00 537.33 558.00 543.00 C 562.33 543.00 566.67 543.00 571.00 543.00 C 571.00 537.33 571.00 531.67 571.00 526.00 Z"
       id="path70" />
  </g>
  <g
     fill="#F3D866"
     fill-opacity="1.00"
     stroke="None"
     id="g71">
    <path
       d=" M 546.00 533.00  C 538.01 533.24 528.87 532.68 521.00 533.00 C 513.13 533.32 503.45 532.39 496.00 533.00 C 488.55 533.61 476.82 529.26 478.00 539.00 C 485.99 538.76 495.13 539.32 503.00 539.00 C 510.87 538.68 520.55 539.61 528.00 539.00 C 535.45 538.39 547.18 542.74 546.00 533.00 Z"
       id="path71" />
  </g>
  <g
     fill="#F2BA30"
     fill-opacity="1.00"
     stroke="None"
     id="g72">
    <path
       d=" M 454.00 624.00  C 468.99 624.30 484.01 624.00 499.00 624.00 C 525.67 624.00 552.33 624.00 579.00 624.00 C 586.72 618.84 590.28 603.25 579.07 599.93 C 567.86 596.60 555.91 598.30 544.00 598.00 C 532.09 597.70 519.54 597.98 508.00 599.00 C 496.46 600.02 482.08 597.38 471.00 599.00 C 459.92 600.62 446.35 593.45 439.26 604.26 C 432.17 615.06 444.10 623.80 454.00 624.00 Z"
       id="path72" />
  </g>
  <g
     fill="#F7DD9B"
     fill-opacity="1.00"
     stroke="None"
     id="g73">
    <path
       d=" M 499.00 624.00  C 484.01 624.00 468.99 624.30 454.00 624.00 C 467.96 625.69 484.96 625.36 499.00 624.00 Z"
       id="path73" />
  </g>
  <g
     fill="#EEA027"
     fill-opacity="1.00"
     stroke="None"
     id="g74">
    <path
       d=" M 554.00 636.00  C 525.67 636.00 497.33 636.00 469.00 636.00 C 480.30 674.16 543.63 675.97 554.00 636.00 Z"
       id="path74" />
  </g>
  <g
     fill="#FCF6DC"
     fill-opacity="1.00"
     stroke="None"
     id="g75">
    <path
       d=" M 780.00 750.00  C 766.51 739.58 763.40 708.42 739.00 718.00 C 752.29 743.30 777.55 766.87 770.00 799.00 C 775.33 799.00 780.67 799.00 786.00 799.00 C 784.86 783.18 785.03 764.02 795.08 752.08 C 805.13 740.14 808.79 730.16 817.00 718.00 C 794.99 710.38 788.64 735.81 780.00 750.00 Z"
       id="path75" />
  </g>
  <g
     fill="#F0B634"
     fill-opacity="1.00"
     stroke="None"
     id="g76">
    <path
       d=" M 279.00 718.00  C 259.67 718.00 240.33 718.00 221.00 718.00 C 221.00 745.33 221.00 772.67 221.00 800.00 C 226.67 800.00 232.33 800.00 238.00 800.00 C 238.00 789.33 238.00 778.67 238.00 768.00 C 250.33 768.00 262.67 768.00 275.00 768.00 C 278.24 759.42 276.15 750.21 266.00 752.00 C 255.85 753.79 248.86 750.66 239.00 752.00 C 239.00 745.67 239.00 739.33 239.00 733.00 C 252.33 733.00 265.67 733.00 279.00 733.00 C 279.00 728.00 279.00 723.00 279.00 718.00 Z"
       id="path76" />
  </g>
  <g
     fill="#EFB634"
     fill-opacity="1.00"
     stroke="None"
     id="g77">
    <path
       d=" M 315.00 718.00  C 309.33 718.00 303.67 718.00 298.00 718.00 C 298.00 745.33 298.00 772.67 298.00 800.00 C 303.67 800.00 309.33 800.00 315.00 800.00 C 315.00 772.67 315.00 745.33 315.00 718.00 Z"
       id="path77" />
  </g>
  <g
     fill="#EFB231"
     fill-opacity="1.00"
     stroke="None"
     id="g78">
    <path
       d=" M 425.00 799.00  C 427.82 794.98 423.59 786.01 425.00 781.00 C 426.41 775.99 424.07 768.33 425.00 763.00 C 425.93 757.67 423.47 750.55 426.00 746.00 C 427.04 748.09 429.78 749.23 429.00 752.00 C 435.73 761.08 438.44 766.15 444.08 776.92 C 449.73 787.69 461.58 780.87 465.08 771.08 C 468.58 761.30 475.70 755.93 480.00 747.00 C 479.23 764.94 481.35 782.17 481.00 800.00 C 486.33 800.00 491.67 800.00 497.00 800.00 C 497.00 772.67 497.00 745.33 497.00 718.00 C 490.67 718.00 484.33 718.00 478.00 718.00 C 468.67 731.01 463.13 747.18 452.00 759.00 C 448.91 747.99 440.69 743.27 436.77 732.23 C 432.86 721.18 421.85 714.15 409.00 718.00 C 409.00 745.33 409.00 772.67 409.00 800.00 C 413.36 798.58 421.66 802.34 425.00 799.00 Z"
       id="path78" />
  </g>
  <g
     fill="#EDB531"
     fill-opacity="1.00"
     stroke="None"
     id="g79">
    <path
       d=" M 535.00 718.00  C 529.67 718.00 524.33 718.00 519.00 718.00 C 519.00 745.00 519.00 772.00 519.00 799.00 C 524.33 799.00 529.67 799.00 535.00 799.00 C 535.00 772.00 535.00 745.00 535.00 718.00 Z"
       id="path79" />
  </g>
  <g
     fill="#FCF5DB"
     fill-opacity="1.00"
     stroke="None"
     id="g80">
    <path
       d=" M 567.00 718.00  C 561.67 718.00 556.33 718.00 551.00 718.00 C 556.97 745.63 566.73 772.00 575.00 799.00 C 581.00 799.00 587.00 799.00 593.00 799.00 C 599.40 781.53 603.38 762.71 611.00 746.00 C 615.36 755.97 616.73 765.04 620.67 775.33 C 624.62 785.61 622.61 798.60 636.00 799.00 C 649.39 799.40 649.66 787.43 653.02 777.02 C 656.38 766.62 659.34 757.73 662.67 747.67 C 666.01 737.61 668.43 728.17 671.00 718.00 C 660.26 715.18 651.10 718.98 649.99 728.99 C 648.88 739.00 644.53 743.88 642.98 752.98 C 641.43 762.08 637.97 768.59 636.00 777.00 C 631.17 757.44 624.34 737.51 618.00 718.00 C 606.86 714.47 600.44 720.61 598.78 729.78 C 597.12 738.94 593.76 744.48 591.93 752.93 C 590.09 761.37 586.65 767.35 584.00 775.00 C 578.46 756.36 573.02 736.85 567.00 718.00 Z"
       id="path80" />
  </g>
  <g
     fill="#FCF6DC"
     fill-opacity="1.00"
     stroke="None"
     id="g81">
    <path
       d=" M 748.00 799.00  C 745.17 788.70 741.08 779.02 736.93 769.07 C 732.77 759.13 730.55 750.22 725.78 740.22 C 721.00 730.23 719.96 718.17 707.00 718.00 C 694.04 717.83 693.50 729.86 688.98 739.98 C 684.45 750.09 681.76 759.74 677.78 769.78 C 673.79 779.81 669.59 788.61 667.00 799.00 C 673.88 798.30 685.17 802.18 686.08 793.08 C 686.98 783.97 692.67 781.83 701.00 783.00 C 709.33 784.17 716.85 781.55 725.00 782.00 C 726.65 786.70 726.09 793.59 729.26 797.74 C 732.42 801.90 743.57 797.24 748.00 799.00 M 708.00 737.00  C 710.80 748.26 717.56 758.37 719.00 770.00 C 711.00 770.00 703.00 770.00 695.00 770.00 C 697.93 758.88 701.56 745.56 708.00 737.00 Z"
       id="path81" />
  </g>
  <g
     fill="#EDAD2D"
     fill-opacity="1.00"
     stroke="None"
     id="g82">
    <path
       d=" M 354.00 719.00  C 348.67 719.00 343.33 719.00 338.00 719.00 C 338.00 746.00 338.00 773.00 338.00 800.00 C 356.33 800.00 374.67 800.00 393.00 800.00 C 396.58 790.48 393.93 781.02 383.00 783.00 C 372.07 784.98 364.61 781.51 354.00 783.00 C 354.00 761.67 354.00 740.33 354.00 719.00 Z"
       id="path82" />
  </g>
  <g
     fill="#FDFCF9"
     fill-opacity="1.00"
     stroke="None"
     id="g83">
    <path
       d=" M 708.00 737.00  C 701.56 745.56 697.93 758.88 695.00 770.00 C 703.00 770.00 711.00 770.00 719.00 770.00 C 717.56 758.37 710.80 748.26 708.00 737.00 Z"
       id="path83" />
  </g>
  <g
     fill="#F3E4C4"
     fill-opacity="1.00"
     stroke="None"
     id="g84">
    <path
       d=" M 425.00 799.00  C 427.73 796.27 425.08 789.69 426.02 786.02 C 426.97 782.36 427.65 777.90 427.00 774.00 C 426.35 770.10 428.32 764.60 427.00 761.00 C 425.68 757.41 429.04 751.07 429.00 752.00 C 429.78 749.23 427.04 748.09 426.00 746.00 C 423.47 750.55 425.93 757.67 425.00 763.00 C 424.07 768.33 426.41 775.99 425.00 781.00 C 423.59 786.01 427.82 794.98 425.00 799.00 Z"
       id="path84" />
  </g>
</svg>
